<?xml version="1.0" encoding="UTF-8"?><svg id="Calque_1" xmlns="http://www.w3.org/2000/svg" viewBox="0 0 16 16"><path d="m9.56.2C3.96-.86-.86,3.96.2,9.56c.59,3.13,3.12,5.65,6.25,6.25,5.6,1.06,10.42-3.76,9.36-9.36C15.21,3.31,12.69.79,9.56.2Zm3.61,8.81c-.46.46-1.2.46-1.66,0l-1.98-1.98c-.13-.13-.34-.04-.34.14v4.84c0,.65-.53,1.17-1.17,1.17s-1.17-.53-1.17-1.17v-4.84c0-.18-.22-.27-.34-.14l-1.98,1.98c-.44.44-1.22.44-1.66,0-.46-.46-.46-1.2,0-1.66L6.9,3.28c.28-.28.68-.44,1.1-.44h0c.42,0,.82.16,1.1.45l4.06,4.06c.46.46.46,1.2,0,1.66Z" style="fill:#d93ef9;"/></svg>